<svg width="99" height="29" viewBox="0 0 99 29" fill="none" xmlns="http://www.w3.org/2000/svg">
<path d="M23.9258 17.8223L21.7529 15.6494C21.4274 15.3239 21.0164 15.1693 20.52 15.1855C20.0236 15.2018 19.6208 15.3727 19.3115 15.6982C18.6117 16.4795 18.099 16.9718 17.7734 17.1753C17.4479 17.3787 17.2526 17.4967 17.1875 17.5293C17.0573 17.5456 16.9271 17.5578 16.7969 17.5659C16.6667 17.5741 16.5446 17.5781 16.4307 17.5781C15.9098 17.5781 15.3646 17.4886 14.7949 17.3096C14.2253 17.1305 13.6475 16.8701 13.0615 16.5283C12.4756 16.1865 11.9059 15.7796 11.3525 15.3076C10.7992 14.8356 10.2865 14.3066 9.81445 13.7207C9.0332 12.7604 8.46354 11.7839 8.10547 10.791C7.7474 9.79818 7.6416 8.91113 7.78809 8.12988C7.82064 8.08105 7.93864 7.88981 8.14209 7.55615C8.34554 7.22249 8.83789 6.70573 9.61914 6.00586C9.79818 5.8431 9.93652 5.65592 10.0342 5.44434C10.1318 5.23275 10.1807 5.01302 10.1807 4.78516C10.1807 4.54102 10.1318 4.31315 10.0342 4.10156C9.93652 3.88997 9.81445 3.71094 9.66797 3.56445L7.49512 1.36719C7.21842 1.09049 6.87256 0.931803 6.45752 0.891113C6.04248 0.850424 5.6722 0.94401 5.34668 1.17188C4.80957 1.5625 4.25618 1.98568 3.68652 2.44141C3.11686 2.89713 2.6001 3.35287 2.13623 3.80859C1.67236 4.26432 1.29395 4.71191 1.00098 5.15137C0.708008 5.6071 0.561523 6.02213 0.561523 6.39648C0.561523 8.02409 1.21257 9.89583 2.51465 12.0117C3.81673 14.1276 5.41178 16.1296 7.2998 18.0176C9.18783 19.9056 11.1898 21.4925 13.3057 22.7783C15.4215 24.0804 17.2933 24.7314 18.9209 24.7314C19.3115 24.7314 19.7347 24.585 20.1904 24.292C20.6299 23.999 21.0815 23.6247 21.5454 23.1689C22.0093 22.7132 22.4609 22.2005 22.9004 21.6309C23.3561 21.0612 23.7712 20.5078 24.1455 19.9707C24.3734 19.6452 24.467 19.279 24.4263 18.8721C24.3856 18.4652 24.2188 18.1152 23.9258 17.8223ZM23.3887 19.458C22.4447 20.7764 21.5739 21.8262 20.7764 22.6074C19.9788 23.3887 19.3766 23.7793 18.9697 23.7793C17.4723 23.7793 15.7227 23.1527 13.7207 21.8994C11.7188 20.6462 9.81852 19.1243 8.02002 17.334C6.22152 15.5436 4.70378 13.6475 3.4668 11.6455C2.21354 9.64355 1.58691 7.89388 1.58691 6.39648C1.58691 5.97331 1.9694 5.36703 2.73438 4.57764C3.49935 3.78825 4.55729 2.92155 5.9082 1.97754C6.03841 1.89616 6.18083 1.86361 6.33545 1.87988C6.49007 1.89616 6.63249 1.97754 6.7627 2.12402L8.95996 4.32129C9.10645 4.48405 9.15934 4.67122 9.11865 4.88281C9.07796 5.0944 9.00879 5.24088 8.91113 5.32227C8.0485 6.11979 7.48698 6.71794 7.22656 7.1167C6.96615 7.51546 6.81152 7.82064 6.7627 8.03223C6.58366 8.95996 6.68945 9.98535 7.08008 11.1084C7.4707 12.2314 8.11361 13.3382 9.00879 14.4287C9.52962 15.0635 10.0911 15.6413 10.6934 16.1621C11.3118 16.6667 11.9385 17.1061 12.5732 17.4805C13.208 17.8548 13.8509 18.1396 14.502 18.335C15.153 18.5303 15.7715 18.6279 16.3574 18.6279C16.5365 18.6279 16.7074 18.6198 16.8701 18.6035C17.0329 18.5872 17.1875 18.5628 17.334 18.5303C17.5293 18.4814 17.8304 18.3309 18.2373 18.0786C18.6442 17.8263 19.2383 17.2689 20.0195 16.4062C20.1497 16.2598 20.3206 16.1825 20.5322 16.1743C20.7438 16.1662 20.9147 16.2272 21.0449 16.3574L23.2666 18.5791C23.3968 18.693 23.4741 18.8354 23.4985 19.0063C23.5229 19.1772 23.4863 19.3278 23.3887 19.458ZM19.9707 5.59082C20.8171 6.4209 21.4111 7.40153 21.7529 8.53271C22.0947 9.6639 22.1598 10.7992 21.9482 11.9385L22.9248 12.085C23.0387 11.4339 23.0713 10.7747 23.0225 10.1074C22.9736 9.45638 22.8516 8.82161 22.6562 8.20312C22.4609 7.58463 22.2005 6.99056 21.875 6.4209C21.5495 5.86751 21.1507 5.35482 20.6787 4.88281C20.1904 4.37826 19.6533 3.95508 19.0674 3.61328C18.4652 3.27148 17.8385 3.007 17.1875 2.81982C16.5365 2.63265 15.8691 2.52279 15.1855 2.49023C14.502 2.47396 13.8102 2.53906 13.1104 2.68555L13.3301 3.66211C14.5182 3.38542 15.7023 3.4139 16.8823 3.74756C18.0623 4.08122 19.0918 4.69564 19.9707 5.59082ZM19.2139 11.5967C19.3441 10.848 19.2993 10.1156 19.0796 9.39941C18.8599 8.68327 18.4814 8.05664 17.9443 7.51953C17.391 6.96615 16.7399 6.57959 15.9912 6.35986C15.2425 6.14014 14.4694 6.11979 13.6719 6.29883L13.8916 7.27539C14.4938 7.14518 15.092 7.16553 15.686 7.33643C16.2801 7.50732 16.7969 7.80436 17.2363 8.22754C17.6758 8.66699 17.981 9.16748 18.1519 9.729C18.3228 10.2905 18.3594 10.8561 18.2617 11.4258L19.2139 11.5967Z" fill="white"/>
</svg>
