<svg width="156" height="24" viewBox="0 0 156 24" fill="none" xmlns="http://www.w3.org/2000/svg">
<g clip-path="url(#clip0_94_112)">
<path d="M22.9022 6.50346C22.6404 5.51804 21.8694 4.74196 20.8903 4.47858C19.1157 4 11.9999 4 11.9999 4C11.9999 4 4.88403 4 3.1094 4.47858C2.13036 4.742 1.35928 5.51804 1.09757 6.50346C0.62207 8.28958 0.62207 12.0162 0.62207 12.0162C0.62207 12.0162 0.62207 15.7428 1.09757 17.5289C1.35928 18.5143 2.13036 19.258 3.1094 19.5214C4.88403 20 11.9999 20 11.9999 20C11.9999 20 19.1157 20 20.8903 19.5214C21.8694 19.258 22.6404 18.5143 22.9022 17.5289C23.3777 15.7428 23.3777 12.0162 23.3777 12.0162C23.3777 12.0162 23.3777 8.28958 22.9022 6.50346ZM9.67257 15.3996V8.63271L15.62 12.0163L9.67257 15.3996Z" fill="white"/>
<path d="M62.625 12C62.625 5.57812 57.4219 0.375 51 0.375C44.5781 0.375 39.375 5.57812 39.375 12C39.375 17.8022 43.6261 22.6116 49.1836 23.4844V15.3605H46.2305V12H49.1836V9.43875C49.1836 6.52547 50.918 4.91625 53.5744 4.91625C54.8466 4.91625 56.1769 5.14313 56.1769 5.14313V8.0025H54.7106C53.2669 8.0025 52.8164 8.89875 52.8164 9.81797V12H56.0405L55.5248 15.3605H52.8164V23.4844C58.3739 22.6116 62.625 17.8022 62.625 12Z" fill="white"/>
<path d="M101.977 6.55469C101.945 5.91406 101.883 5.36328 101.789 4.90234C101.695 4.44141 101.57 4.02344 101.414 3.64844C101.258 3.24219 101.066 2.85938 100.84 2.5C100.613 2.14062 100.344 1.8125 100.031 1.51562C99.7344 1.21875 99.4062 0.953125 99.0469 0.71875C98.6875 0.484375 98.3047 0.289062 97.8984 0.132812C97.5234 -0.0078125 97.1055 -0.128906 96.6445 -0.230469C96.1836 -0.332031 95.6328 -0.398438 94.9922 -0.429688C94.3516 -0.460938 93.7734 -0.480469 93.2578 -0.488281C92.7422 -0.496094 91.6719 -0.5 90.0469 -0.5C88.4219 -0.5 87.3516 -0.496094 86.8359 -0.488281C86.3203 -0.480469 85.7422 -0.460938 85.1016 -0.429688C84.4609 -0.398438 83.9102 -0.335938 83.4492 -0.242188C82.9883 -0.148438 82.5703 -0.0234375 82.1953 0.132812C81.7891 0.289062 81.4062 0.480469 81.0469 0.707031C80.6875 0.933594 80.3594 1.20312 80.0625 1.51562C79.75 1.8125 79.4766 2.14062 79.2422 2.5C79.0078 2.85938 78.8203 3.24219 78.6797 3.64844C78.5234 4.02344 78.3984 4.44141 78.3047 4.90234C78.2109 5.36328 78.1484 5.91406 78.1172 6.55469C78.0859 7.19531 78.0664 7.77344 78.0586 8.28906C78.0508 8.80469 78.0469 9.875 78.0469 11.5C78.0469 13.125 78.0508 14.1953 78.0586 14.7109C78.0664 15.2266 78.0859 15.8047 78.1172 16.4453C78.1484 17.0859 78.2109 17.6367 78.3047 18.0977C78.3984 18.5586 78.5234 18.9766 78.6797 19.3516C78.8203 19.7578 79.0078 20.1406 79.2422 20.5C79.4766 20.8594 79.75 21.1875 80.0625 21.4844C80.3594 21.7969 80.6875 22.0703 81.0469 22.3047C81.4062 22.5391 81.7812 22.7266 82.1719 22.8672C82.5625 23.0234 82.9883 23.1484 83.4492 23.2422C83.9102 23.3359 84.4609 23.3984 85.1016 23.4297C85.7422 23.4609 86.3164 23.4805 86.8242 23.4883C87.332 23.4961 88.4062 23.5 90.0469 23.5C91.6719 23.5 92.7422 23.4961 93.2578 23.4883C93.7734 23.4805 94.3516 23.4609 94.9922 23.4297C95.6328 23.3984 96.1836 23.3359 96.6445 23.2422C97.1055 23.1484 97.5234 23.0234 97.8984 22.8672C98.7109 22.5547 99.4219 22.0938 100.031 21.4844C100.641 20.875 101.102 20.1641 101.414 19.3516C101.555 18.9766 101.676 18.5586 101.777 18.0977C101.879 17.6367 101.945 17.0859 101.977 16.4453C101.992 15.8047 102.008 15.2266 102.023 14.7109C102.039 14.1953 102.047 13.125 102.047 11.5C102.047 9.875 102.043 8.80469 102.035 8.28906C102.027 7.77344 102.008 7.19531 101.977 6.55469ZM99.8203 16.3516C99.7891 16.9453 99.7305 17.4141 99.6445 17.7578C99.5586 18.1016 99.4766 18.375 99.3984 18.5781C99.1953 19.1094 98.8945 19.5703 98.4961 19.9609C98.0977 20.3516 97.6406 20.6484 97.125 20.8516C96.9062 20.9453 96.625 21.0312 96.2812 21.1094C95.9375 21.1875 95.4766 21.2422 94.8984 21.2734C94.2578 21.3047 93.6914 21.3242 93.1992 21.332C92.707 21.3398 91.6562 21.3438 90.0469 21.3438C88.4531 21.3438 87.4062 21.3398 86.9062 21.332C86.4062 21.3242 85.8359 21.3047 85.1953 21.2734C84.6172 21.2422 84.1562 21.1875 83.8125 21.1094C83.4688 21.0312 83.1875 20.9453 82.9688 20.8516C82.7188 20.7578 82.4766 20.6367 82.2422 20.4883C82.0078 20.3398 81.7891 20.1641 81.5859 19.9609C81.3984 19.7734 81.2266 19.5625 81.0703 19.3281C80.9141 19.0938 80.7891 18.8438 80.6953 18.5781C80.6172 18.375 80.5352 18.1016 80.4492 17.7578C80.3633 17.4141 80.3125 16.9453 80.2969 16.3516C80.2656 15.7266 80.2461 15.1641 80.2383 14.6641C80.2305 14.1641 80.2266 13.1094 80.2266 11.5C80.2266 9.90625 80.2305 8.85938 80.2383 8.35938C80.2461 7.85938 80.2656 7.29688 80.2969 6.67188C80.3125 6.07812 80.3633 5.60938 80.4492 5.26562C80.5352 4.92188 80.6172 4.64844 80.6953 4.44531C80.7891 4.17969 80.9141 3.92969 81.0703 3.69531C81.2266 3.46094 81.4062 3.25 81.6094 3.0625C81.7969 2.85938 82.0078 2.68359 82.2422 2.53516C82.4766 2.38672 82.7188 2.26562 82.9688 2.17188C83.1875 2.07812 83.4688 1.99219 83.8125 1.91406C84.1562 1.83594 84.6172 1.78125 85.1953 1.75C85.8359 1.71875 86.4062 1.69922 86.9062 1.69141C87.4062 1.68359 88.4531 1.67969 90.0469 1.67969C91.6562 1.67969 92.7109 1.68359 93.2109 1.69141C93.7109 1.69922 94.2734 1.71875 94.8984 1.75C95.4922 1.78125 95.9609 1.83594 96.3047 1.91406C96.6484 1.99219 96.9219 2.07812 97.125 2.17188C97.3906 2.26562 97.6406 2.38672 97.875 2.53516C98.1094 2.68359 98.3203 2.85938 98.5078 3.0625C98.7109 3.25 98.8867 3.46094 99.0352 3.69531C99.1836 3.92969 99.3047 4.17969 99.3984 4.44531C99.4766 4.64844 99.5586 4.92188 99.6445 5.26562C99.7305 5.60938 99.7891 6.07812 99.8203 6.67188C99.8516 7.29688 99.8711 7.85938 99.8789 8.35938C99.8867 8.85938 99.8906 9.90625 99.8906 11.5C99.8906 13.1094 99.8867 14.1641 99.8789 14.6641C99.8711 15.1641 99.8516 15.7266 99.8203 16.3516ZM90.0469 5.33594C89.1875 5.33594 88.3906 5.5 87.6562 5.82812C86.9062 6.14062 86.25 6.57812 85.6875 7.14062C85.125 7.70312 84.6875 8.35938 84.375 9.10938C84.0469 9.85938 83.8828 10.6562 83.8828 11.5C83.8828 12.3594 84.0469 13.1562 84.375 13.8906C84.6875 14.6406 85.125 15.2969 85.6875 15.8594C86.25 16.4219 86.9062 16.8594 87.6562 17.1719C88.3906 17.5 89.1875 17.6641 90.0469 17.6641C90.8906 17.6641 91.6875 17.5 92.4375 17.1719C93.1875 16.8594 93.8438 16.4219 94.4062 15.8594C94.9688 15.2969 95.4062 14.6406 95.7188 13.8906C96.0469 13.1562 96.2109 12.3594 96.2109 11.5C96.2109 10.6562 96.0469 9.85938 95.7188 9.10938C95.4062 8.35938 94.9688 7.70312 94.4062 7.14062C93.8438 6.57812 93.1875 6.14062 92.4375 5.82812C91.6875 5.5 90.8906 5.33594 90.0469 5.33594ZM90.0469 15.5078C88.9375 15.5078 87.9922 15.1172 87.2109 14.3359C86.4297 13.5547 86.0391 12.6094 86.0391 11.5C86.0391 10.3906 86.4297 9.44531 87.2109 8.66406C87.9922 7.88281 88.9375 7.49219 90.0469 7.49219C91.1562 7.49219 92.1016 7.88281 92.8828 8.66406C93.6641 9.44531 94.0547 10.3906 94.0547 11.5C94.0547 12.6094 93.6641 13.5547 92.8828 14.3359C92.1016 15.1172 91.1562 15.5078 90.0469 15.5078ZM97.8984 5.10156C97.8984 5.49219 97.7578 5.82812 97.4766 6.10938C97.1953 6.39062 96.8516 6.53125 96.4453 6.53125C96.0547 6.53125 95.7188 6.39062 95.4375 6.10938C95.1562 5.82812 95.0156 5.49219 95.0156 5.10156C95.0156 4.69531 95.1562 4.35156 95.4375 4.07031C95.7188 3.78906 96.0547 3.64844 96.4453 3.64844C96.8516 3.64844 97.1953 3.78906 97.4766 4.07031C97.7578 4.35156 97.8984 4.69531 97.8984 5.10156Z" fill="white"/>
<path d="M140.674 20.7497L136 16.0767C135.789 15.8658 135.503 15.7486 135.203 15.7486H134.439C135.733 14.0939 136.501 12.0131 136.501 9.74906C136.501 4.36359 132.137 0 126.751 0C121.365 0 117 4.36359 117 9.74906C117 15.1345 121.365 19.4981 126.751 19.4981C129.015 19.4981 131.097 18.7294 132.751 17.4356V18.1997C132.751 18.4997 132.869 18.7856 133.08 18.9966L137.753 23.6695C138.194 24.1102 138.907 24.1102 139.343 23.6695L140.669 22.343C141.11 21.9023 141.11 21.1903 140.674 20.7497ZM126.751 16.4981C123.023 16.4981 120.001 13.4822 120.001 9.74906C120.001 6.02109 123.017 3 126.751 3C130.479 3 133.501 6.01594 133.501 9.74906C133.501 13.477 130.485 16.4981 126.751 16.4981ZM126.752 5.25C124.84 5.25 123.291 6.79922 123.291 8.71078C123.291 10.2558 125.553 13.0725 126.42 14.0948C126.46 14.1435 126.511 14.1826 126.568 14.2095C126.626 14.2363 126.688 14.2502 126.752 14.2502C126.815 14.2502 126.878 14.2363 126.935 14.2095C126.993 14.1826 127.044 14.1435 127.084 14.0948C127.951 13.0725 130.213 10.2563 130.213 8.71078C130.213 6.79922 128.663 5.25 126.752 5.25ZM126.752 9.75C126.13 9.75 125.627 9.24609 125.627 8.625C125.627 8.00344 126.131 7.5 126.752 7.5C127.373 7.5 127.877 8.00344 127.877 8.625C127.877 9.24609 127.373 9.75 126.752 9.75Z" fill="white"/>
</g>
<defs>
<clipPath id="clip0_94_112">
<rect width="156" height="24" fill="white"/>
</clipPath>
</defs>
</svg>
